<?xml version="1.0" encoding="UTF-8"?>
<svg id="_图层_2" data-name="图层 2" xmlns="http://www.w3.org/2000/svg" viewBox="0 0 200.63 56.26">
  <defs>
    <style>
      .cls-1 {
        fill: #231815;
        stroke-width: 0px;
      }
    </style>
  </defs>
  <g id="_图层_1-2" data-name="图层 1">
    <g>
      <path class="cls-1" d="m53.73,21.12l-10.01,35.14H0l4.1-14.5h28.67l1.74-6.13H5.88l5.89-20.9L1,.45h43.91l10.97,14.54h-29.12l-1.72,6.13h28.68Z"/>
      <path class="cls-1" d="m96.41,41.75l-4.13,14.5h-43.72l7.91-27.99,3.85-13.57L49.56.45h29.89l-11.69,41.3h28.65Z"/>
      <path class="cls-1" d="m140.25,0l10.97,14.53-11.82,41.72h-43.72l7.91-27.99,3.85-13.57L96.68.45h29.9l-11.7,41.3h13.56L140.25,0Z"/>
      <path class="cls-1" d="m200.63,14.99h-20.01l-11.69,41.27h-15.07l7.91-27.99,3.78-13.28h-8.36l-.13.45-.34-.45h-.28l.07-.27L145.75.45h43.91l10.97,14.54Z"/>
    </g>
  </g>
</svg>